:SAMPLES-PER-SECOND 30
:FULLY-SPECIFIED
:DEGREES
55
root  0.449777 38.4139 3.24649 -157.68 -84.1406 152.05
RightUpLeg  18.8904 -10.6989 -7.09741
RightLeg  10.0467 4.96079 1.2108
RightFoot  -22.6424 0.167458 3.2369
RightToes  5.82063e-011 0 -3.6325e-017
Spine  5.33066 1.34534 5.52877
Spine1  7.003 3.21045 -6.17155
HEad  -2.92935 2.01233 -4.28106
LeftShoulder1  -0.573074 5.1878 -27.834
LeftArm  -12.5825 17.4972 -40.9517
LeftForeArm  17.2875 -17.2138 -3.69592
LeftHand  -0.0412255 7.01927 0.0383693
RightShoulder  -0.611134 -5.3682 26.0549
RightArm  12.1056 5.2031 45.3291
RightForeArm  9.10294 14.143 5.27383
RightHand  -0.256695 4.34018 -3.34569
LeftUpLeg  -17.5429 11.3053 -5.7357
LeftLeg  14.2852 10.3738 2.30799
LeftFoot  2.80874 -0.565841 4.50862
LeftToes  1.68253e-010 -3.2327e-011 -2.69673e-012
56
root  -0.630744 38.2703 3.28645 -145.33 -84.3504 139.551
RightUpLeg  20.1229 -10.905 -8.60165
RightLeg  11.7411 5.02214 0.971549
RightFoot  -23.1964 0.360942 4.98332
RightToes  5.82063e-011 0 -3.6325e-017
Spine  5.18338 1.2812 4.14872
Spine1  6.81268 3.32221 -7.07658
HEad  -2.62558 1.32294 -3.41193
LeftShoulder1  -0.558803 5.14839 -27.766
LeftArm  -12.3177 17.6729 -40.7135
LeftForeArm  18.3014 -16.1368 -3.77894
LeftHand  -0.0494961 7.15949 -0.477397
RightShoulder  -0.649347 -5.47299 26.2801
RightArm  11.1363 2.55414 46.3671
RightForeArm  9.69222 13.9351 5.10846
RightHand  -0.27545 4.46681 -3.52758
LeftUpLeg  -18.0228 12.5405 -7.62054
LeftLeg  18.1733 7.48816 3.13823
LeftFoot  2.07135 -0.895574 7.50743
LeftToes  1.68253e-010 -3.2327e-011 -2.69673e-012
57
root  -1.68178 38.1905 3.35478 -131.711 -84.5827 125.361
RightUpLeg  21.1885 -10.8139 -10.0837
RightLeg  14.5876 4.84505 1.12341
RightFoot  -23.0259 0.619586 7.58631
RightToes  5.82063e-011 0 -3.6325e-017
Spine  5.5714 1.27632 2.59338
Spine1  6.88767 3.3463 -7.4743
HEad  -2.11738 0.32409 -3.10386
LeftShoulder1  -0.601752 5.2444 -28.3858
LeftArm  -11.7358 16.9901 -40.1822
LeftForeArm  19.1783 -14.442 -4.03045
LeftHand  -0.0619729 7.55768 -1.05913
RightShoulder  -0.692235 -5.59377 26.441
RightArm  9.54645 -0.45329 47.3068
RightForeArm  10.2384 13.5576 4.83526
RightHand  -0.260522 4.30249 -3.40124
LeftUpLeg  -17.1042 11.4236 -8.49224
LeftLeg  20.9101 7.90622 3.6554
LeftFoot  0.518693 -0.904677 8.65381
LeftToes  1.68253e-010 -3.2327e-011 -2.69673e-012
58
root  -2.6736 38.2022 3.47794 -122.644 -84.2652 115.995
RightUpLeg  20.6182 -9.45533 -11.1587
RightLeg  19.3402 4.50865 1.55209
RightFoot  -21.6797 0.91972 11.7799
RightToes  5.82063e-011 0 -3.6325e-017
Spine  5.99307 1.51588 1.74993
Spine1  6.77354 3.73253 -8.98108
HEad  -1.21322 -0.617416 -3.06521
LeftShoulder1  -0.59632 5.23256 -28.2788
LeftArm  -12.1055 16.8727 -40.6355
LeftForeArm  19.3936 -12.7162 -4.15388
LeftHand  -0.0526262 7.32257 -0.668886
RightShoulder  -0.756921 -5.75455 26.9967
RightArm  9.03794 -3.00329 47.9014
RightForeArm  10.7656 12.3702 4.94441
RightHand  -0.229633 3.54181 -3.25238
LeftUpLeg  -15.7429 10.6461 -9.40045
LeftLeg  22.2326 8.55574 4.15866
LeftFoot  -1.61131 -0.738766 8.7669
LeftToes  1.68253e-010 -3.2327e-011 -2.69673e-012
59
root  -3.58081 38.2274 3.61384 -118.514 -83.3878 111.913
RightUpLeg  17.6289 -7.82865 -12.5266
RightLeg  27.2193 4.80059 2.45022
RightFoot  -18.796 0.952769 16.7477
RightToes  5.82063e-011 0 -3.6325e-017
Spine  6.30904 1.95015 0.180877
Spine1  6.63091 3.9804 -9.7399
HEad  -0.554618 -1.05433 -2.98238
LeftShoulder1  -0.687015 5.47284 -28.6909
LeftArm  -11.753 16.8886 -40.804
LeftForeArm  18.9616 -11.4483 -4.43603
LeftHand  -0.0375592 7.24684 0.125521
RightShoulder  -0.766771 -5.7736 27.1489
RightArm  9.07968 -4.43289 48.7826
RightForeArm  13.0386 10.2586 5.33192
RightHand  -0.168749 3.82237 -2.33251
LeftUpLeg  -14.4817 10.3657 -10.5176
LeftLeg  22.7464 8.95543 4.44586
LeftFoot  -3.42298 -0.571093 8.53253
LeftToes  1.68253e-010 -3.2327e-011 -2.69673e-012
60
root  -4.46061 38.3059 3.73673 -116.357 -82.7682 110.242
RightUpLeg  12.5695 -5.87297 -13.2131
RightLeg  36.8323 4.40759 3.28018
RightFoot  -12.4118 0.12008 19.2537
RightToes  5.82063e-011 0 -3.6325e-017
Spine  6.38261 2.16403 -1.24428
Spine1  6.01127 3.95989 -10.0193
HEad  -0.277009 -1.25303 -2.87554
LeftShoulder1  -0.621355 5.3115 -28.1491
LeftArm  -12.3636 18.2914 -42.0949
LeftForeArm  19.6875 -11.4092 -4.22987
LeftHand  -0.068876 7.58711 -1.32183
RightShoulder  -0.764878 -5.75995 27.2523
RightArm  10.0609 -5.53726 49.6309
RightForeArm  16.8131 9.15997 5.75545
RightHand  -0.048902 1.99961 -0.976967
LeftUpLeg  -13.3718 10.6234 -11.2755
LeftLeg  22.5444 8.83631 4.30962
LeftFoot  -4.9142 -0.437079 8.30109
LeftToes  1.68253e-010 -3.2327e-011 -2.69673e-012
